<?xml version="1.0" standalone="no"?>
<!DOCTYPE svg PUBLIC "-//W3C//DTD SVG 20010904//EN"
 "http://www.w3.org/TR/2001/REC-SVG-20010904/DTD/svg10.dtd">
<svg version="1.0" xmlns="http://www.w3.org/2000/svg"
 width="900.000000pt" height="663.000000pt" viewBox="0 0 900.000000 663.000000"
 preserveAspectRatio="xMidYMid meet">
<metadata>
Created by potrace 1.10, written by Peter Selinger 2001-2011
</metadata>
<g transform="translate(0.000000,663.000000) scale(0.100000,-0.100000)"
fill="#c2c1c3" stroke="none">
<path d="M3875 6199 c-187 -9 -306 -35 -525 -115 -47 -17 -185 -94 -263 -146
-34 -23 -114 -94 -177 -157 -128 -129 -218 -254 -279 -386 -10 -22 -32 -70
-49 -106 -17 -36 -34 -79 -37 -95 -4 -16 -10 -38 -15 -49 -27 -61 -65 -238
-85 -390 -19 -144 -30 -515 -16 -535 9 -13 58 -15 322 -18 172 -2 316 1 320 5
4 4 10 85 13 178 10 347 41 500 143 720 78 169 230 309 415 383 175 71 523 71
693 2 235 -96 353 -220 467 -490 8 -19 25 -75 37 -125 12 -49 27 -106 32 -125
5 -19 12 -145 15 -280 5 -206 9 -247 22 -257 20 -17 603 -19 633 -3 17 10 19
22 19 148 0 145 -24 443 -40 502 -6 19 -10 47 -10 61 0 28 -12 73 -62 234 -69
224 -201 452 -349 605 -67 70 -181 170 -192 170 -5 0 -24 12 -43 27 -19 14
-59 39 -87 55 -269 148 -541 205 -902 187z"/>
<path d="M2285 3955 c-156 -38 -235 -83 -342 -192 -84 -85 -126 -155 -169
-283 -18 -52 -19 -113 -19 -1295 l0 -1240 23 -65 c45 -124 84 -190 162 -269
92 -94 162 -137 290 -180 87 -29 261 -32 1835 -29 1483 3 1604 5 1660 21 213
62 378 204 452 392 11 28 26 66 34 85 11 29 14 239 17 1242 1 736 -1 1227 -7
1260 -17 94 -30 134 -66 204 -65 129 -167 228 -300 293 -155 76 -34 71 -1874
70 -1277 -1 -1657 -4 -1696 -14z m1817 -1109 c148 -36 267 -147 318 -299 19
-57 22 -81 18 -160 -7 -130 -41 -202 -142 -301 l-76 -74 0 -263 c0 -306 -6
-336 -77 -399 -114 -100 -284 -70 -356 63 -21 40 -22 57 -27 324 l-5 282 -62
56 c-126 114 -177 269 -142 437 23 111 115 231 223 293 87 51 219 67 328 41z"/>
</g>
</svg>
