<?xml version="1.0" standalone="no"?>
<!DOCTYPE svg PUBLIC "-//W3C//DTD SVG 20010904//EN"
 "http://www.w3.org/TR/2001/REC-SVG-20010904/DTD/svg10.dtd">
<svg version="1.0" xmlns="http://www.w3.org/2000/svg"
 width="900.000000pt" height="732.000000pt" viewBox="0 0 900.000000 732.000000"
 preserveAspectRatio="xMidYMid meet">
<metadata>
Created by potrace 1.10, written by Peter Selinger 2001-2011
</metadata>
<g transform="translate(0.000000,732.000000) scale(0.100000,-0.100000)"
fill="#c2c1c3" stroke="none">
<path d="M5940 6850 c-211 -19 -406 -62 -528 -116 -30 -13 -58 -24 -63 -24 -5
0 -51 -23 -101 -51 -363 -202 -615 -510 -767 -939 -21 -57 -58 -207 -91 -360
-16 -76 -40 -417 -40 -576 0 -128 1 -132 23 -138 36 -10 695 -7 701 3 4 5 8
113 11 241 6 282 25 408 87 594 66 199 180 363 328 472 166 123 356 171 629
161 154 -6 224 -18 339 -61 164 -60 318 -193 420 -364 18 -29 32 -56 32 -61 0
-5 11 -32 25 -59 43 -86 87 -257 106 -412 7 -52 15 -189 18 -305 l6 -210 355
0 355 0 -1 280 c0 219 -4 304 -18 390 -27 166 -67 338 -87 374 -4 9 -17 45
-29 81 -29 87 -148 330 -180 368 -6 7 -30 41 -53 75 -55 84 -255 282 -345 343
-96 64 -120 78 -222 129 -243 122 -622 191 -910 165z"/>
<path d="M1685 4374 c-38 -8 -83 -19 -100 -25 -270 -102 -438 -297 -494 -577
-8 -36 -11 -465 -11 -1352 0 -1127 2 -1308 15 -1371 21 -98 40 -153 77 -219
108 -192 270 -314 493 -368 65 -16 204 -17 1870 -17 1483 0 1811 2 1865 14 69
14 217 68 226 82 3 5 22 16 42 26 20 9 73 53 117 98 85 85 143 180 187 306
l23 64 3 1312 c1 722 -1 1352 -6 1400 -27 264 -227 510 -485 598 -136 46 -91
45 -1975 44 -1466 -1 -1789 -4 -1847 -15z m1986 -1232 c261 -69 427 -360 349
-611 -36 -113 -94 -198 -185 -267 l-35 -26 0 -287 c0 -303 -4 -336 -52 -416
-38 -66 -120 -108 -209 -107 -106 0 -185 54 -228 155 -20 45 -21 68 -21 345
l0 297 -70 63 c-118 107 -174 226 -174 372 1 233 155 430 379 486 71 17 169
16 246 -4z"/>
</g>
</svg>
